<?xml version="1.0" standalone="no"?>
<!DOCTYPE svg PUBLIC "-//W3C//DTD SVG 20010904//EN"
 "http://www.w3.org/TR/2001/REC-SVG-20010904/DTD/svg10.dtd">
<svg version="1.0" xmlns="http://www.w3.org/2000/svg"
 width="2672.000000pt" height="2672.000000pt" viewBox="0 0 2672.000000 2672.000000"
 preserveAspectRatio="xMidYMid meet">
<metadata>
Created by potrace 1.14, written by Peter Selinger 2001-2017
</metadata>
<g transform="translate(0.000000,2672.000000) scale(0.100000,-0.100000)"
fill="#000000" stroke="none">
<path d="M1970 17350 c-57 -14 -249 -47 -342 -60 -78 -11 -93 -16 -145 -55
-32 -23 -68 -46 -81 -50 -52 -15 -153 -82 -184 -121 -18 -23 -107 -122 -197
-220 -168 -182 -238 -270 -334 -417 -62 -94 -291 -467 -311 -506 -25 -47 -204
-584 -230 -686 -27 -110 -64 -299 -96 -500 -19 -116 -21 -155 -15 -365 9 -347
53 -582 132 -715 78 -130 224 -344 285 -420 234 -288 555 -490 929 -585 46
-12 112 -35 147 -51 l63 -29 -33 -47 c-109 -153 -590 -678 -751 -820 -217
-192 -529 -472 -669 -602 l-136 -126 31 -32 c32 -34 50 -39 89 -24 13 5 52 14
87 21 36 6 82 20 104 31 21 11 66 29 101 39 69 22 165 80 210 128 16 18 45 37
65 43 79 26 181 113 442 377 145 147 298 308 339 357 41 50 124 144 184 210
149 164 205 241 272 375 89 178 175 252 237 206 17 -13 17 -27 7 -237 -27
-576 -42 -832 -56 -919 -7 -52 -23 -187 -35 -300 -11 -113 -24 -225 -29 -249
-7 -41 -6 -46 29 -84 20 -22 65 -62 100 -89 55 -42 70 -48 111 -48 56 0 142
-40 214 -100 38 -32 56 -40 80 -38 30 3 31 5 45 78 7 41 14 76 15 77 1 1 39 7
86 13 90 12 133 32 173 80 24 28 24 30 30 332 4 192 12 339 22 403 24 161 39
286 40 350 1 33 6 71 12 85 13 31 9 260 -6 350 -16 97 -14 147 6 159 15 8 18
35 24 208 4 109 19 407 33 663 53 957 50 878 28 1035 -24 164 -35 465 -33 871
3 370 -14 564 -69 805 -11 48 -20 114 -20 149 0 76 -31 201 -64 261 -44 78
-73 170 -95 299 -11 69 -30 157 -42 195 -12 39 -29 95 -38 125 -9 30 -19 60
-23 66 -4 6 -45 14 -90 16 -52 3 -111 15 -158 31 -82 28 -325 68 -405 66 -27
-1 -66 -5 -85 -9z m358 -324 l41 -45 -5 -183 c-2 -101 -9 -284 -15 -408 -6
-124 -12 -454 -14 -735 -2 -363 -9 -614 -24 -870 -12 -198 -26 -457 -31 -575
-6 -118 -17 -296 -24 -395 -8 -99 -18 -252 -21 -340 -5 -117 -10 -164 -21
-176 -8 -8 -14 -28 -14 -42 0 -15 -1 -27 -2 -27 -2 0 -52 -7 -113 -15 -60 -8
-163 -15 -228 -15 -65 0 -149 -5 -187 -11 -90 -14 -218 7 -307 51 -116 57
-310 265 -384 411 -73 145 -99 258 -106 464 -7 184 23 473 68 670 68 294 90
417 99 540 9 138 30 217 85 325 15 30 32 69 36 85 33 126 83 245 165 393 41
74 74 138 74 142 0 5 15 28 34 53 49 65 56 80 49 120 -5 34 1 42 168 238 l174
202 175 85 c154 75 210 96 271 101 9 0 35 -19 57 -43z"/>
<path d="M6273 15825 c-57 -28 -86 -53 -162 -137 -100 -111 -137 -175 -218
-371 -106 -259 -157 -429 -168 -562 -3 -44 -13 -127 -21 -185 -9 -65 -14 -158
-12 -245 l3 -140 -48 -175 c-113 -409 -138 -495 -163 -550 -30 -68 -47 -85
-91 -94 -29 -7 -32 -5 -41 26 -6 18 -13 75 -16 125 -4 51 -15 125 -25 165 -22
87 -46 431 -35 515 11 92 16 99 106 144 94 47 182 105 216 142 l23 25 -58 42
-58 42 -90 -4 -90 -3 -3 105 c-1 57 1 124 7 148 7 33 5 50 -5 70 -15 30 -13
135 6 232 6 31 8 87 4 127 -4 46 -2 89 6 120 11 42 10 61 -4 126 -14 63 -23
81 -46 99 -16 11 -31 31 -34 44 -8 30 -132 91 -156 76 -8 -5 -23 -39 -32 -76
-10 -36 -29 -94 -43 -128 -14 -35 -32 -92 -40 -128 -26 -114 -93 -540 -110
-690 -9 -80 -17 -150 -19 -156 -4 -11 -103 -39 -174 -49 -24 -3 -60 -14 -80
-24 -21 -10 -49 -21 -63 -24 -24 -6 -27 -4 -32 31 -3 20 -9 147 -12 282 -11
426 -23 489 -111 588 -56 63 -57 63 -98 56 -53 -8 -175 -66 -203 -96 -21 -22
-21 -25 -7 -93 8 -38 17 -133 20 -210 11 -241 -30 -532 -136 -950 -53 -212
-57 -246 -33 -266 49 -43 68 -29 118 86 l33 77 7 -68 c4 -37 5 -131 1 -208
-10 -201 16 -551 43 -580 10 -12 35 -53 54 -92 34 -67 83 -123 110 -125 118
-6 152 -11 176 -24 32 -16 62 -19 99 -9 30 9 29 48 -7 256 -47 261 -51 308
-56 568 -4 234 5 372 26 412 10 19 36 25 158 36 l84 8 13 -31 c8 -20 15 -102
19 -226 9 -288 46 -476 128 -660 36 -80 70 -115 151 -156 63 -33 80 -37 148
-37 69 -1 79 2 105 25 15 15 62 49 104 77 122 82 181 188 234 427 15 66 42
152 60 192 18 39 36 95 40 125 4 29 9 57 12 61 3 5 21 -20 41 -54 21 -34 65
-91 100 -127 l62 -65 0 -377 c0 -207 2 -379 5 -382 3 -3 40 5 82 19 257 81
776 191 1193 252 648 95 1110 134 1580 134 451 0 826 -50 1135 -150 159 -51
361 -160 425 -228 l23 -25 -1611 0 -1612 0 0 -510 0 -510 1612 0 1611 0 -19
-21 c-25 -29 -146 -109 -213 -144 -251 -127 -637 -208 -1126 -236 -463 -26
-1246 38 -2017 166 -348 58 -836 168 -1003 225 -29 10 -56 16 -59 13 -9 -9 -7
-966 2 -980 24 -38 355 -156 632 -227 569 -145 1106 -210 1900 -231 723 -20
1600 97 2145 286 322 111 620 269 845 450 357 285 551 652 578 1092 44 701
-278 1220 -988 1590 -471 246 -1065 388 -1920 459 -332 27 -1094 9 -1520 -36
-69 -8 -126 -13 -128 -11 -1 1 5 19 14 41 10 21 23 62 30 89 7 28 34 118 60
200 53 173 61 222 41 249 -12 16 -18 17 -50 7 -19 -7 -41 -18 -47 -26 -6 -8
-53 -141 -104 -297 l-93 -283 -74 -12 c-41 -6 -81 -12 -90 -12 -13 -1 -18 20
-28 122 -7 67 -24 187 -37 267 -22 133 -24 162 -18 345 8 243 -4 362 -45 450
-16 33 -31 72 -35 86 -8 36 -50 61 -116 71 -30 5 -72 11 -93 14 -54 9 -98 -2
-149 -36 l-45 -30 5 -107 c2 -60 10 -148 17 -196 11 -78 10 -100 -6 -195 -10
-59 -18 -141 -17 -182 4 -194 -4 -243 -75 -465 -38 -115 -77 -232 -88 -260
l-20 -50 -170 -56 c-194 -64 -173 -70 -184 58 -5 60 -3 77 15 110 16 30 19 48
14 90 -9 72 39 363 70 423 13 25 36 106 50 180 32 160 48 211 91 299 18 36 35
87 39 114 5 31 22 69 50 111 24 36 55 85 70 109 37 64 98 113 172 137 35 12
64 26 64 32 0 22 -52 78 -94 103 -54 32 -159 55 -252 55 -62 0 -81 -5 -141
-35z"/>
<path d="M12417 12453 c2 -962 3 -1763 3 -1781 l0 -32 2963 3 c2816 2 2965 3
3022 20 280 84 469 280 561 582 25 82 28 105 28 255 1 142 -2 177 -23 255 -73
281 -247 493 -489 595 -37 15 -82 31 -99 35 -31 6 -33 9 -33 50 l0 44 68 36
c294 154 473 522 432 886 -44 390 -233 648 -555 759 l-100 35 -2890 3 -2890 2
2 -1747z m5083 712 c60 -31 80 -127 38 -180 -46 -58 65 -55 -1843 -55 l-1755
0 0 125 0 125 1765 0 c1559 0 1769 -2 1795 -15z m115 -1269 c82 -35 99 -141
31 -203 l-36 -33 -1835 0 -1835 0 0 125 0 125 1820 0 c1562 0 1826 -2 1855
-14z"/>
<path d="M21103 14188 c-6 -7 -48 -78 -93 -158 -46 -80 -142 -248 -215 -375
-73 -126 -417 -725 -765 -1330 -348 -605 -708 -1232 -801 -1393 l-168 -292
880 2 881 3 366 632 367 633 1340 -3 1339 -2 159 -275 c87 -151 251 -436 364
-632 l205 -358 879 0 879 0 -14 23 c-8 12 -176 303 -373 647 -674 1173 -1486
2585 -1573 2735 l-86 150 -1781 3 c-1417 2 -1783 -1 -1790 -10z m2440 -1090
c26 -46 58 -102 72 -125 l26 -43 -750 0 -750 0 72 125 72 125 606 0 605 0 47
-82z"/>
<path d="M14140 10350 c-119 -26 -234 -119 -291 -237 -65 -135 -48 -316 41
-434 51 -69 120 -123 190 -151 79 -31 232 -31 310 0 68 27 156 95 193 149 56
81 77 149 77 253 0 104 -21 172 -77 253 -38 55 -126 123 -193 148 -63 24 -182
33 -250 19z m238 -129 c91 -47 154 -134 170 -235 18 -111 -14 -212 -89 -287
-64 -64 -117 -84 -224 -84 -107 0 -164 23 -232 92 -81 84 -107 229 -62 348 27
72 99 146 171 174 72 29 203 25 266 -8z"/>
<path d="M15738 10347 c-64 -18 -113 -54 -148 -106 -17 -25 -30 -47 -30 -50 0
-7 81 -51 93 -51 4 0 7 6 7 13 0 8 16 30 35 50 25 25 48 38 86 46 118 26 209
-28 209 -124 0 -84 -63 -135 -170 -135 l-60 0 0 -50 0 -50 58 0 c125 0 191
-42 199 -126 7 -66 -14 -107 -68 -135 -56 -28 -162 -28 -218 0 -37 20 -81 67
-81 89 0 6 -4 13 -9 16 -12 8 -91 -36 -91 -50 0 -7 15 -33 33 -60 108 -162
400 -165 511 -6 25 35 31 55 34 110 4 83 -22 141 -85 188 l-41 32 28 20 c90
67 92 228 4 316 -63 63 -195 91 -296 63z"/>
<path d="M17262 10344 c-136 -36 -244 -136 -292 -270 -18 -52 -21 -78 -18
-160 3 -87 7 -108 35 -167 126 -266 479 -329 683 -123 67 68 86 99 110 175 36
113 18 269 -40 356 -107 161 -300 237 -478 189z m224 -111 c72 -24 167 -121
188 -193 21 -70 20 -154 -1 -221 -25 -80 -119 -171 -198 -194 -218 -64 -419
83 -419 305 1 144 80 259 211 306 53 18 160 17 219 -3z"/>
<path d="M18985 10347 c-260 -67 -394 -355 -281 -602 33 -72 117 -160 186
-195 178 -89 377 -57 506 83 30 32 54 61 54 65 0 4 -20 18 -45 32 l-44 24 -37
-42 c-20 -24 -59 -55 -88 -70 -45 -24 -62 -27 -146 -27 -83 1 -102 4 -146 27
-60 32 -118 93 -147 157 -16 35 -21 66 -21 131 0 111 25 171 101 240 63 57
124 80 218 80 92 0 151 -24 214 -88 l55 -55 43 24 c24 13 43 27 43 32 0 5 -25
35 -55 66 -77 81 -164 120 -277 126 -50 3 -103 -1 -133 -8z"/>
<path d="M21223 10350 c-101 -20 -222 -110 -278 -205 -52 -88 -68 -220 -40
-329 20 -75 53 -130 116 -193 166 -165 433 -162 599 7 97 98 139 227 119 366
-34 242 -268 403 -516 354z m245 -135 c182 -99 223 -348 83 -508 -18 -20 -58
-49 -89 -64 -50 -24 -69 -28 -147 -28 -105 0 -158 20 -224 86 -67 67 -86 118
-86 229 0 113 20 163 92 235 66 64 127 86 233 82 71 -2 94 -8 138 -32z"/>
<path d="M23085 10346 c-83 -20 -143 -57 -210 -127 -73 -78 -104 -147 -112
-254 -10 -132 31 -244 125 -339 126 -127 318 -160 487 -82 72 33 163 124 198
197 55 117 55 264 0 379 -31 64 -121 158 -181 189 -94 48 -207 62 -307 37z
m253 -131 c183 -99 223 -348 83 -508 -18 -20 -58 -49 -89 -64 -50 -24 -69 -28
-147 -28 -74 0 -98 4 -137 23 -102 51 -167 148 -176 263 -9 122 35 223 126
290 65 47 107 59 202 56 72 -3 93 -8 138 -32z"/>
<path d="M25443 10345 c-81 -22 -132 -52 -193 -114 -98 -98 -139 -225 -119
-367 33 -233 257 -396 491 -356 246 42 406 289 344 530 -21 82 -54 138 -120
200 -112 106 -260 145 -403 107z m222 -112 c71 -24 156 -110 185 -188 46 -124
10 -269 -90 -358 -152 -137 -407 -85 -496 101 -24 49 -28 69 -27 142 0 64 5
97 21 132 37 83 114 152 202 179 45 13 155 9 205 -8z"/>
<path d="M12380 9930 l0 -410 55 0 55 0 0 360 0 360 190 0 190 0 0 -360 0
-360 55 0 55 0 0 410 0 410 -300 0 -300 0 0 -410z"/>
<path d="M13160 9930 l0 -410 55 0 55 0 0 145 0 145 103 0 c134 0 167 7 230
44 176 105 160 375 -27 462 -48 22 -63 24 -233 24 l-183 0 0 -410z m380 288
c78 -53 100 -137 58 -218 -37 -71 -71 -85 -208 -85 l-115 0 -3 163 -2 162 118
0 c107 0 122 -2 152 -22z"/>
<path d="M14800 9930 l0 -410 44 0 44 0 209 303 208 302 3 -302 2 -303 55 0
55 0 0 411 0 410 -47 -3 -46 -3 -206 -299 -206 -298 -3 301 -2 301 -55 0 -55
0 0 -410z"/>
<path d="M16260 9930 l0 -410 210 0 c154 0 219 4 243 13 107 45 167 166 137
277 -8 32 -26 59 -60 92 -48 46 -48 47 -28 65 83 75 76 242 -13 317 -61 52
-82 56 -294 56 l-195 0 0 -410z m389 296 c77 -40 88 -153 20 -210 -29 -25 -35
-26 -165 -26 l-134 0 0 125 0 125 125 0 c91 0 134 -4 154 -14z m57 -377 c63
-63 54 -165 -18 -209 -29 -17 -50 -20 -175 -20 l-143 0 0 128 c0 71 3 132 8
136 4 4 71 6 149 4 l143 -3 36 -36z"/>
<path d="M17977 10068 c-5 -284 -12 -338 -54 -411 -15 -26 -26 -33 -56 -35
l-37 -3 0 -130 0 -129 55 0 55 0 0 80 0 80 270 0 270 0 0 -80 0 -80 55 0 55 0
0 129 0 130 -42 3 -43 3 -3 358 -2 357 -259 0 -259 0 -5 -272z m413 -138 l0
-310 -180 0 c-99 0 -180 1 -180 3 0 1 9 25 20 53 28 74 40 194 40 391 l0 173
150 0 150 0 0 -310z"/>
<path d="M19500 10290 l0 -50 120 0 120 0 0 -360 0 -360 55 0 55 0 0 360 0
359 123 3 122 3 3 48 3 47 -300 0 -301 0 0 -50z"/>
<path d="M20210 9930 l0 -410 208 0 c231 0 257 6 319 71 91 96 83 255 -17 326
l-38 28 33 37 c73 81 72 197 -3 280 -64 71 -90 78 -309 78 l-193 0 0 -410z
m405 277 c60 -60 59 -134 -1 -186 l-35 -31 -129 0 -130 0 0 125 0 125 131 0
131 0 33 -33z m0 -331 c46 -20 75 -69 75 -129 0 -40 -5 -53 -34 -85 l-34 -37
-151 -3 -151 -3 0 135 0 136 130 0 c91 0 141 -4 165 -14z"/>
<path d="M22170 9930 l0 -410 55 0 55 0 0 190 c0 105 4 190 8 190 5 0 85 -85
178 -190 l169 -189 69 -1 70 0 -30 33 c-17 17 -102 112 -188 210 l-158 179 29
31 c16 18 98 107 182 200 l153 167 -69 0 -68 0 -165 -180 c-91 -99 -168 -180
-172 -180 -5 0 -8 81 -8 180 l0 180 -55 0 -55 0 0 -410z"/>
<path d="M23750 9931 l0 -411 205 0 c162 0 213 3 242 15 95 40 145 113 145
214 0 70 -26 126 -77 169 l-37 30 27 26 c88 88 66 254 -44 331 l-43 30 -209 3
-209 3 0 -410z m411 270 c33 -32 39 -45 39 -80 0 -23 -7 -55 -15 -71 -26 -50
-59 -60 -200 -60 l-125 0 0 125 0 125 131 0 131 0 39 -39z m-7 -325 c72 -30
101 -105 68 -178 -29 -67 -60 -78 -226 -78 l-136 0 0 135 0 135 130 0 c88 0
141 -4 164 -14z"/>
<path d="M24480 9930 l0 -410 55 0 55 0 0 145 0 145 108 0 c131 0 192 16 251
67 141 120 116 350 -48 435 -53 28 -55 28 -237 28 l-184 0 0 -410z m370 292
c53 -26 80 -74 80 -142 0 -43 -6 -65 -22 -90 -44 -64 -64 -72 -197 -78 l-121
-5 0 167 0 166 113 0 c87 0 120 -4 147 -18z"/>
<path d="M26110 9930 l0 -410 212 0 c241 0 268 7 331 81 81 94 75 215 -13 301
l-48 46 23 22 c38 35 55 83 55 149 0 69 -21 119 -67 163 -54 52 -85 58 -298
58 l-195 0 0 -410z m401 287 c69 -46 73 -147 8 -201 -29 -25 -35 -26 -165 -26
l-134 0 0 125 0 125 129 0 c117 0 131 -2 162 -23z m15 -343 c92 -44 99 -181
11 -234 -28 -17 -51 -20 -174 -20 l-143 0 0 128 c0 71 3 132 7 135 3 4 65 7
136 7 98 0 137 -4 163 -16z"/>
</g>
</svg>
