<!-- icon666.com - MILLIONS vector ICONS FREE --><svg version="1.1" id="Layer_1" xmlns="http://www.w3.org/2000/svg" xmlns:xlink="http://www.w3.org/1999/xlink" x="0px" y="0px" viewBox="0 0 511.999 511.999" style="enable-background:new 0 0 511.999 511.999;" xml:space="preserve"><g><g><path d="M459.235,70.524H110.804c-26.663,0-48.756,19.884-52.265,45.599h-5.773C23.67,116.122,0,139.792,0,168.887V388.71 c0,29.095,23.67,52.765,52.765,52.765h348.432c26.663,0,48.756-19.884,52.265-45.599h5.773c29.095,0,52.765-23.67,52.765-52.765 V123.288C512,94.194,488.33,70.524,459.235,70.524z M419.615,388.712c0,10.154-8.262,18.417-18.417,18.417H52.765 c-10.155,0-18.417-8.262-18.417-18.417V217.073h385.267V388.712z M419.615,182.724H34.347v-13.837 c0-10.155,8.262-18.417,18.417-18.417h348.433c10.155,0,18.417,8.262,18.417,18.417V182.724z M459.235,361.529h-5.273V168.887 c0-29.095-23.67-52.765-52.765-52.765H93.837c2.8-6.606,9.351-11.251,16.965-11.251h348.432c10.155,0,18.417,8.262,18.417,18.417 v219.824h0.001C477.653,353.267,469.391,361.529,459.235,361.529z" fill="#000000" style="fill: rgb(184, 40, 40);"></path></g></g></svg>