<!-- icon666.com - MILLIONS vector ICONS FREE --><svg viewBox="0 0 256 256" xmlns="http://www.w3.org/2000/svg"><g id="Layer_33"><g><g><path d="m148.174 181.262c-7.875 2.087-16.227 2.99-24.858 2.484-40.035-2.343-72.276-34.89-74.22-74.946-2.202-45.332 34.045-82.916 78.904-82.916 6.97 0 13.729.914 20.169 2.621 3.192.846 6.331-1.499 6.331-4.801v-.034c0-2.256-1.51-4.244-3.69-4.823-7.318-1.942-15.003-2.973-22.926-2.963-47.537.061-86.993 38.011-88.817 85.513-1.945 50.656 38.701 92.487 88.933 92.487 7.888 0 15.54-1.032 22.827-2.967 2.173-.577 3.673-2.565 3.673-4.813v-.044c0-3.3-3.137-5.643-6.326-4.798z" fill="#edf4fc"></path></g><g><path d="m128 25.884c-1.681 0-3.345.07-5 .174v12.032c1.653-.122 3.316-.205 5-.205s3.347.083 5 .205v-12.046c-1.654-.104-3.32-.16-5-.16z" fill="#c7d7e5"></path></g><g><path d="m123 171.679v12.042c.106.007.21.02.316.026 3.272.191 6.503.179 9.684-.022v-12.046c-1.653.122-3.316.205-5 .205s-3.347-.083-5-.205z" fill="#c7d7e5"></path></g><g><path d="m127.884 15.884c1.718-.002 3.422.054 5.116.148v-8.532c0-2.761-2.238-5-5-5-2.761 0-5 2.239-5 5v8.534c1.619-.091 3.245-.148 4.884-.15z" fill="#c7d7e5"></path></g><g><path d="m179.906 248.5c0-2.761-2.239-5-5-5h-93.812c-2.761 0-5 2.239-5 5 0 2.761 2.239 5 5 5h93.813c2.761 0 4.999-2.239 4.999-5z" fill="#c18e6b"></path></g><g><path d="m169 243.5v-17.471c0-5.815-4.714-10.529-10.529-10.529h-60.942c-5.815 0-10.529 4.714-10.529 10.529v17.471z" fill="#a57453"></path></g><g><path d="m128 193.884c-3.496 0-6.943-.21-10.335-.604v22.22h20.67v-22.225c-3.392.395-6.839.609-10.335.609z" fill="#f5c84c"></path></g><g><circle cx="128" cy="104.884" fill="#70d6f9" r="67"></circle></g><g><path d="m155.391 43.742c-2.295 6.769-2.471 16.997 11.082 25.78 22.549 14.612 3.684 26.822 23.651 38.918 2.103 1.274 3.52 2.66 4.423 4.144.289-2.528.454-5.094.454-7.7-.001-27.242-16.268-50.668-39.61-61.142z" fill="#87d147"></path></g><g><path d="m136.413 38.428c-2.758-.346-5.561-.544-8.413-.544-37.003 0-67 29.997-67 67 0 15.209 5.075 29.228 13.614 40.473 3.786-1.254 6.886-3.582 6.886-7.857 0-11 8-14 16-7 2.054 1.797 4.371 3.133 6.681 4.125 5.793 2.489 11.261-4.083 7.913-9.426-2.044-3.261-4.826-6.931-8.595-10.7-12-12-2-20 5-32s-6-19 12-29c9.233-5.128 13.723-10.779 15.914-15.071z" fill="#87d147"></path></g><g><path d="m127.926 80.109c-3.174-1.154-6.725.399-7.956 3.544-.816 2.085-1.246 4.739-.47 7.846.746 2.983 1.214 5.55 1.507 7.595.618 4.308 6.635 4.972 8.096.873.252-.707.397-1.524.397-2.468 0-3.141 1.007-6.484 2.117-9.214 1.326-3.262-.381-6.972-3.691-8.176z" fill="#87d147"></path></g><g><path d="m149.966 150.759c-1.698 7.424-10.373 10.02-27.815 9.129-9.516-.486-15.537 3.234-19.312 7.093 7.77 3.152 16.259 4.903 25.16 4.903 18.075 0 34.466-7.17 46.518-18.806-13.168-11.497-22.866-9.684-24.551-2.319z" fill="#87d147"></path></g><g><path d="m167.907 122.237c-.14 1.953-.857 3.822-2.1 5.336-2.352 2.865-7.06 7.093-15.172 8.693-10.738 2.118-14.228-2.973-22.443-1.964-2.779.341-5.254-1.768-5.295-4.568-.041-2.737 2.259-4.921 4.991-4.74 6.038.4 15.769.094 19.457-5.407 1.114-1.662 2.677-3.37 4.461-5.038 6.363-5.949 16.723-.999 16.101 7.688z" fill="#87d147"></path></g><g><path d="m208.013 43.2c-3.1-.6-5.6-3-6.2-6.1 0-.1-.3-.1-.3 0-.6 3.1-3.1 5.5-6.2 6.1-.1 0-.1.2 0 .3 3.1.6 5.6 3 6.2 6.1 0 .1.3.1.3 0 .6-3.1 3.1-5.5 6.2-6.1.1-.1.1-.3 0-.3z" fill="#fc657e"></path></g><g><path d="m205.013 174.5h2.3v2.3c0 1.8 1.4 3.2 3.2 3.2 1.7 0 3.2-1.4 3.2-3.1v-.1-2.3h2.3c1.8 0 3.2-1.4 3.2-3.2 0-1.7-1.4-3.2-3.1-3.2h-.1-2.3v-2.3c0-1.8-1.4-3.2-3.2-3.2-1.7 0-3.2 1.4-3.2 3.1v.1 2.3h-2.3c-1.8 0-3.2 1.4-3.2 3.2-.1 1.7 1.3 3.2 3.2 3.2-.1 0-.1 0 0 0z" fill="#87d147"></path></g><g><circle cx="187.413" cy="207.9" fill="#f5c84c" r="3.4"></circle></g><g><circle cx="72.413" cy="3.4" fill="#70d6f9" r="3.4"></circle></g><g><path d="m29.813 32.2c4.5-.8 8-4.3 8.9-8.7 0-.2.4-.2.4 0 .9 4.4 4.4 7.9 8.9 8.7.2 0 .2.3 0 .4-4.5.8-8 4.3-8.9 8.7 0 .2-.4.2-.4 0-.9-4.4-4.4-7.9-8.9-8.7-.2-.1-.2-.4 0-.4z" fill="#f5c84c"></path></g><g><path d="m128 196.384c-25.069 0-48.477-9.977-65.911-28.094-17.42-18.102-26.483-41.893-25.52-66.989.907-23.619 10.862-45.727 28.031-62.252 17.164-16.52 39.637-25.635 63.281-25.665h.12c7.944 0 15.832 1.025 23.451 3.046 3.267.867 5.549 3.844 5.549 7.239 0 2.367-1.06 4.521-2.906 5.942-1.872 1.442-4.267 1.92-6.565 1.31-6.355-1.684-12.926-2.537-19.528-2.537-21.105 0-40.771 8.443-55.375 23.773-14.589 15.314-22.058 35.388-21.032 56.522.911 18.755 8.761 36.504 22.105 49.978 13.343 13.473 31.017 21.497 49.764 22.594 8.15.476 16.25-.333 24.072-2.405 2.3-.608 4.69-.132 6.563 1.309 1.846 1.42 2.904 3.573 2.904 5.905 0 3.436-2.274 6.408-5.531 7.273-7.627 2.024-15.523 3.051-23.472 3.051zm0-178c-.038 0-.075 0-.113 0-22.347.029-43.592 8.647-59.821 24.267-16.233 15.624-25.645 36.521-26.502 58.842-.911 23.726 7.658 46.217 24.126 63.331 16.483 17.128 38.611 26.561 62.309 26.561 7.516 0 14.98-.97 22.186-2.884 1.068-.284 1.814-1.269 1.814-2.396 0-1.096-.598-1.712-.954-1.987-.632-.486-1.446-.646-2.231-.438-8.336 2.209-16.962 3.073-25.645 2.563-19.98-1.169-38.812-9.716-53.024-24.067-14.214-14.352-22.576-33.264-23.547-53.254-1.093-22.515 6.864-43.899 22.406-60.213 15.558-16.332 36.509-25.325 58.996-25.325 7.035 0 14.036.91 20.81 2.704.787.21 1.603.048 2.235-.439.356-.274.955-.893.955-1.946 0-1.165-.753-2.154-1.832-2.44-7.199-1.91-14.657-2.879-22.168-2.879zm20.174 162.878h.01z"></path></g><g><path d="m123 40.589c-.629 0-1.237-.237-1.702-.668-.509-.473-.798-1.137-.798-1.832v-12.031c0-1.32 1.026-2.412 2.343-2.495 1.914-.12 3.601-.179 5.157-.179 1.684 0 3.419.056 5.157.166 1.317.083 2.343 1.176 2.343 2.495v12.044c0 .695-.289 1.359-.799 1.832s-1.199.709-1.886.662c-3.662-.271-5.968-.271-9.631 0-.061.003-.123.006-.184.006zm2.5-12.156v7.005c1.744-.072 3.256-.072 5 0v-7.011c-1.664-.057-3.222-.061-5 .006z"></path></g><g><path d="m127.974 186.382c-1.604 0-3.209-.047-4.804-.14l-.243-.019c-1.32-.079-2.427-1.18-2.427-2.502v-12.042c0-.695.29-1.359.798-1.832.509-.473 1.188-.712 1.886-.662 3.663.271 5.969.271 9.631 0 .687-.049 1.376.188 1.886.662.51.473.799 1.137.799 1.832v12.045c0 1.319-1.025 2.412-2.342 2.495-1.719.109-3.452.163-5.184.163zm-2.474-5.041c1.677.055 3.345.054 5 0v-7.011c-1.744.072-3.256.072-5 0z"></path></g><g><path d="m123 18.534c-.637 0-1.252-.243-1.718-.684-.499-.472-.782-1.129-.782-1.816v-8.534c0-4.136 3.364-7.5 7.5-7.5s7.5 3.364 7.5 7.5v8.532c0 .687-.283 1.344-.782 1.816-.498.472-1.175.713-1.856.68-1.78-.099-3.395-.159-4.973-.145-1.478.002-3.031.05-4.748.146-.048.004-.095.005-.141.005zm5-13.534c-1.378 0-2.5 1.122-2.5 2.5v5.922c.818-.024 1.608-.038 2.38-.039h.001c.862.009 1.721.012 2.619.039v-5.922c0-1.378-1.121-2.5-2.5-2.5z"></path></g><g><path d="m174.906 256h-93.812c-4.136 0-7.5-3.364-7.5-7.5s3.364-7.5 7.5-7.5h93.813c4.136 0 7.5 3.364 7.5 7.5s-3.365 7.5-7.501 7.5zm-93.812-10c-1.378 0-2.5 1.122-2.5 2.5s1.122 2.5 2.5 2.5h93.813c1.379 0 2.5-1.122 2.5-2.5s-1.121-2.5-2.5-2.5z"></path></g><g><path d="m169 246h-82c-1.381 0-2.5-1.119-2.5-2.5v-17.471c0-7.185 5.845-13.029 13.029-13.029h60.941c7.185 0 13.029 5.845 13.029 13.029v17.471c.001 1.381-1.118 2.5-2.499 2.5zm-79.5-5h77v-14.971c0-4.427-3.602-8.029-8.029-8.029h-60.942c-4.427 0-8.029 3.602-8.029 8.029z"></path></g><g><path d="m138.335 218h-20.67c-1.381 0-2.5-1.119-2.5-2.5v-22.22c0-.713.305-1.393.837-1.867s1.238-.7 1.951-.616c6.679.776 13.316.783 20.092-.005.715-.081 1.419.142 1.951.616.533.475.838 1.154.838 1.867v22.225c.001 1.381-1.118 2.5-2.499 2.5zm-18.17-5h15.67v-16.959c-5.282.458-10.438.454-15.67.004z"></path></g><g><path d="m128 174.384c-38.322 0-69.5-31.178-69.5-69.5s31.178-69.5 69.5-69.5 69.5 31.178 69.5 69.5-31.178 69.5-69.5 69.5zm0-134c-35.565 0-64.5 28.935-64.5 64.5s28.935 64.5 64.5 64.5 64.5-28.935 64.5-64.5-28.935-64.5-64.5-64.5z"></path></g><g><path d="m194.546 115.084c-.86 0-1.676-.445-2.136-1.201-.735-1.209-1.907-2.29-3.582-3.305-10.769-6.523-11.423-13.61-11.999-19.862-.58-6.292-1.128-12.236-11.716-19.097-6.68-4.328-17.132-13.81-12.09-28.68.226-.667.723-1.208 1.368-1.489.645-.282 1.38-.278 2.022.011 24.959 11.199 41.086 36.094 41.086 63.422 0 2.578-.158 5.264-.471 7.985-.121 1.061-.904 1.928-1.947 2.157-.178.04-.357.059-.535.059zm-37.523-67.795c-1.505 7.741 2.12 14.505 10.809 20.135 12.625 8.181 13.343 15.965 13.976 22.833.559 6.049.999 10.828 9.61 16.045.364.22.712.445 1.045.674.024-.705.037-1.403.037-2.092 0-24.38-13.83-46.672-35.477-57.595z"></path></g><g><path d="m74.615 147.857c-.767 0-1.51-.354-1.992-.988-9.239-12.168-14.123-26.686-14.123-41.985 0-38.322 31.178-69.5 69.5-69.5 2.804 0 5.739.189 8.724.564.809.101 1.518.59 1.898 1.31.382.72.389 1.581.018 2.307-2.183 4.277-6.891 10.546-16.926 16.121-9.459 5.255-9.137 8.815-8.648 14.205.34 3.758.765 8.435-2.406 13.87-1.351 2.316-2.784 4.447-4.168 6.508-5.938 8.834-9.521 14.167-1.224 22.465 3.491 3.491 6.501 7.239 8.946 11.14 2.139 3.414 1.825 7.6-.801 10.665-2.578 3.008-6.589 3.945-10.218 2.385-2.804-1.205-5.274-2.733-7.34-4.541-3.126-2.734-6.304-3.771-8.505-2.775-2.129.964-3.35 3.841-3.35 7.892 0 3.367-1.492 7.876-8.6 10.23-.258.086-.523.127-.785.127zm53.385-107.473c-35.565 0-64.5 28.935-64.5 64.5 0 13.566 4.137 26.47 11.985 37.441 3.114-1.491 3.515-3.424 3.515-4.825 0-6.098 2.29-10.635 6.283-12.447 4.096-1.858 9.148-.559 13.863 3.565 1.672 1.463 3.699 2.711 6.021 3.71 2.409 1.035 4.013-.538 4.448-1.044.933-1.089 1.518-2.91.361-4.756-2.246-3.583-5.019-7.035-8.244-10.26-11.208-11.208-5.201-20.146.609-28.789 1.341-1.996 2.729-4.06 3.999-6.238 2.366-4.055 2.064-7.379 1.746-10.899-.647-7.138-.222-12.681 11.2-19.027 6.566-3.647 10.521-7.532 12.897-10.787-1.413-.097-2.8-.144-4.183-.144z"></path></g><g><path d="m125.234 105.211c-.233 0-.469-.012-.707-.036-3.14-.315-5.549-2.616-5.995-5.726-.338-2.354-.828-4.825-1.458-7.344-.802-3.205-.611-6.355.567-9.364 1.708-4.359 6.704-6.595 11.139-4.982 2.235.813 4.071 2.526 5.036 4.699.966 2.174 1.007 4.578.117 6.768-1.265 3.111-1.933 5.972-1.933 8.274 0 1.185-.183 2.298-.543 3.308-.962 2.699-3.411 4.403-6.223 4.403zm.548-22.98c-1.5 0-2.919.892-3.484 2.334-.792 2.021-.917 4.15-.373 6.328.671 2.684 1.194 5.323 1.556 7.846.176 1.229 1.227 1.429 1.545 1.461.385.038 1.334.013 1.721-1.072.167-.47.252-1.018.252-1.628 0-2.984.774-6.401 2.302-10.156.373-.92.354-1.934-.055-2.855-.423-.952-1.196-1.673-2.176-2.029-.423-.155-.859-.229-1.288-.229z"></path></g><g><path d="m128 174.384c-8.998 0-17.779-1.711-26.1-5.085-.772-.313-1.338-.991-1.508-1.807s.077-1.663.66-2.258c5.517-5.641 12.665-8.279 21.226-7.841 20.68 1.058 24.358-3.288 25.25-7.19.825-3.608 3.141-6.2 6.519-7.297 5.929-1.927 13.784 1.018 22.115 8.291.527.46.837 1.121.854 1.821s-.259 1.375-.763 1.861c-13.028 12.577-30.166 19.505-48.253 19.505zm-20.29-8.271c6.537 2.172 13.344 3.271 20.29 3.271 15.85 0 30.912-5.732 42.725-16.201-5.954-4.653-11.501-6.705-15.132-5.524-1.687.548-2.76 1.778-3.188 3.657-2.515 10.992-16.77 11.765-30.38 11.068-5.551-.279-10.346.97-14.315 3.729zm42.257-15.354h.01z"></path></g><g><path d="m145.585 139.287c-3.58 0-6.325-.768-8.841-1.471-2.729-.763-5.082-1.424-8.247-1.033-2.042.251-4.102-.377-5.646-1.724-1.529-1.333-2.424-3.26-2.454-5.289-.03-2 .784-3.937 2.233-5.313s3.422-2.091 5.423-1.958c8.722.582 14.995-.991 17.216-4.304 1.138-1.698 2.763-3.539 4.829-5.472 3.713-3.469 8.866-4.262 13.451-2.076 4.589 2.19 7.214 6.7 6.851 11.77-.179 2.509-1.099 4.84-2.66 6.743-2.808 3.419-7.97 7.853-16.622 9.559-2.06.406-3.886.568-5.533.568zm-15.231-7.62c2.967 0 5.383.676 7.736 1.334 3.441.962 6.688 1.873 12.061.812 7.198-1.42 11.437-5.04 13.724-7.826.901-1.098 1.434-2.456 1.539-3.927.254-3.552-1.909-5.893-4.018-6.899-2.107-1.005-5.284-1.213-7.883 1.215-1.788 1.673-3.165 3.222-4.091 4.604-4.218 6.29-14.126 7.011-21.7 6.509-.612-.04-1.202.17-1.648.594s-.687.997-.678 1.614c.009.62.272 1.186.739 1.593.484.421 1.108.614 1.751.53.868-.107 1.687-.153 2.468-.153z"></path></g></g></g></svg>