<!-- icon666.com - MILLIONS vector ICONS FREE --><svg version="1.1" id="Layer_1" xmlns="http://www.w3.org/2000/svg" xmlns:xlink="http://www.w3.org/1999/xlink" x="0px" y="0px" viewBox="0 0 504.125 504.125" style="enable-background:new 0 0 504.125 504.125;" xml:space="preserve"><path style="" d="M339.772,0c0,0,44.536,108.954-146.337,182.138C89.719,221.893,10.059,323.789,105.173,481.193 c7.877-70.357,41.653-225.485,186.888-260.884c0,0-135.176,50.546-147.117,279.347c69.459,9.752,232.361,16.305,280.726-125.062 C489.536,187.817,339.772,0,339.772,0z" fill="#3A7F0D"></path><path style="fill: rgb(92, 166, 43);" d="M145.007,498.704c147.456-58.849,254.748-196.71,269.556-361.283C384.418,56.107,339.772,0,339.772,0 s44.536,108.954-146.337,182.138C89.719,221.893,10.059,323.789,105.173,481.193c7.877-70.357,41.653-225.485,186.888-260.884 C292.053,220.31,157.279,270.73,145.007,498.704z" fill="#49A010"></path><circle style="" cx="90.459" cy="171.985" r="13.785" fill="#3A7F0D"></circle><g><circle style="fill: rgb(92, 166, 43);" cx="133.782" cy="158.2" r="9.846" fill="#49A010"></circle><circle style="fill: rgb(92, 166, 43);" cx="124.921" cy="64.662" r="24.615" fill="#49A010"></circle><circle style="fill: rgb(92, 166, 43);" cx="200.736" cy="120.785" r="7.877" fill="#49A010"></circle><circle style="fill: rgb(92, 166, 43);" cx="266.713" cy="76.477" r="22.646" fill="#49A010"></circle></g></svg>