<!-- icon666.com - MILLIONS vector ICONS FREE --><svg id="Layer_1" enable-background="new 0 0 24 24" viewBox="0 0 24 24" xmlns="http://www.w3.org/2000/svg"><g><path d="m18 4.5c-3.3-3.3-8.7-3.3-12 0-1.6 1.6-2.5 3.7-2.5 6s.9 4.4 2.5 6l5.2 5.2c.2.2.5.3.7.3s.5-.1.7-.3l5.2-5.2c1.6-1.6 2.5-3.7 2.5-6 .1-2.3-.8-4.4-2.3-6zm-6 9.5c-2.2 0-4-1.8-4-4s1.8-4 4-4 4 1.8 4 4-1.8 4-4 4z" fill="#f44336" style="fill: rgb(224, 44, 31);"></path><path d="m16 10c0 2.2-1.8 4-4 4v8c.3 0 .5-.1.7-.3l5.2-5.2c1.6-1.6 2.5-3.7 2.5-6 0-2.2-.9-4.4-2.5-6s-3.7-2.5-5.9-2.5v4c2.2 0 4 1.8 4 4z" fill="#c62828"></path></g></svg>