<?xml version="1.0" encoding="UTF-8" standalone="no"?>
<svg
   xmlns:dc="http://purl.org/dc/elements/1.1/"
   xmlns:cc="http://creativecommons.org/ns#"
   xmlns:rdf="http://www.w3.org/1999/02/22-rdf-syntax-ns#"
   xmlns:svg="http://www.w3.org/2000/svg"
   xmlns="http://www.w3.org/2000/svg"
   xmlns:sodipodi="http://sodipodi.sourceforge.net/DTD/sodipodi-0.dtd"
   xmlns:inkscape="http://www.inkscape.org/namespaces/inkscape"
   inkscape:export-ydpi="576"
   inkscape:export-xdpi="576"
   inkscape:export-filename="C:\Users\RainBoyz\Desktop\DONE\Solid [Done!]\7 - Temperature.png"
   sodipodi:docname="Template Export.svg"
   inkscape:version="1.0 (4035a4fb49, 2020-05-01)"
   id="svg831"
   version="1.1"
   viewBox="0 0 22.577778 22.577778"
   height="64pt"
   width="64pt">
  <defs
     id="defs825">
    <pattern
       y="0"
       x="0"
       height="6"
       width="6"
       patternUnits="userSpaceOnUse"
       id="EMFhbasepattern" />
    <pattern
       y="0"
       x="0"
       height="6"
       width="6"
       patternUnits="userSpaceOnUse"
       id="EMFhbasepattern-9" />
    <pattern
       y="0"
       x="0"
       height="6"
       width="6"
       patternUnits="userSpaceOnUse"
       id="EMFhbasepattern-0" />
    <pattern
       y="0"
       x="0"
       height="6"
       width="6"
       patternUnits="userSpaceOnUse"
       id="EMFhbasepattern-7" />
    <pattern
       y="0"
       x="0"
       height="6"
       width="6"
       patternUnits="userSpaceOnUse"
       id="EMFhbasepattern-2" />
    <pattern
       y="0"
       x="0"
       height="6"
       width="6"
       patternUnits="userSpaceOnUse"
       id="EMFhbasepattern-98" />
    <pattern
       y="0"
       x="0"
       height="6"
       width="6"
       patternUnits="userSpaceOnUse"
       id="EMFhbasepattern-6" />
    <pattern
       y="0"
       x="0"
       height="6"
       width="6"
       patternUnits="userSpaceOnUse"
       id="EMFhbasepattern-01" />
    <pattern
       y="0"
       x="0"
       height="6"
       width="6"
       patternUnits="userSpaceOnUse"
       id="EMFhbasepattern-07" />
    <pattern
       y="0"
       x="0"
       height="6"
       width="6"
       patternUnits="userSpaceOnUse"
       id="EMFhbasepattern-8" />
    <pattern
       y="0"
       x="0"
       height="6"
       width="6"
       patternUnits="userSpaceOnUse"
       id="EMFhbasepattern-4" />
    <pattern
       y="0"
       x="0"
       height="6"
       width="6"
       patternUnits="userSpaceOnUse"
       id="EMFhbasepattern-40" />
    <pattern
       y="0"
       x="0"
       height="6"
       width="6"
       patternUnits="userSpaceOnUse"
       id="EMFhbasepattern-08" />
    <pattern
       y="0"
       x="0"
       height="6"
       width="6"
       patternUnits="userSpaceOnUse"
       id="EMFhbasepattern-04" />
    <pattern
       y="0"
       x="0"
       height="6"
       width="6"
       patternUnits="userSpaceOnUse"
       id="EMFhbasepattern-014" />
    <pattern
       y="0"
       x="0"
       height="6"
       width="6"
       patternUnits="userSpaceOnUse"
       id="EMFhbasepattern-27" />
    <pattern
       y="0"
       x="0"
       height="6"
       width="6"
       patternUnits="userSpaceOnUse"
       id="EMFhbasepattern-09" />
    <pattern
       y="0"
       x="0"
       height="6"
       width="6"
       patternUnits="userSpaceOnUse"
       id="EMFhbasepattern-5" />
    <pattern
       y="0"
       x="0"
       height="6"
       width="6"
       patternUnits="userSpaceOnUse"
       id="EMFhbasepattern-018" />
  </defs>
  <sodipodi:namedview
     inkscape:document-rotation="0"
     inkscape:snap-global="true"
     inkscape:snap-nodes="false"
     inkscape:bbox-nodes="true"
     inkscape:snap-bbox="true"
     showguides="true"
     inkscape:snap-midpoints="true"
     inkscape:snap-smooth-nodes="true"
     inkscape:snap-intersection-paths="true"
     inkscape:object-paths="true"
     inkscape:showpageshadow="false"
     inkscape:pagecheckerboard="true"
     inkscape:window-maximized="1"
     inkscape:window-y="-8"
     inkscape:window-x="-8"
     inkscape:window-height="715"
     inkscape:window-width="1366"
     units="pt"
     showgrid="false"
     inkscape:current-layer="layer1"
     inkscape:document-units="pt"
     inkscape:cy="42.666667"
     inkscape:cx="42.666667"
     inkscape:zoom="6.1523438"
     inkscape:pageshadow="2"
     inkscape:pageopacity="0.0"
     borderopacity="1.0"
     bordercolor="#666666"
     pagecolor="#ffffff"
     id="base">
    <inkscape:grid
       id="grid1378"
       type="xygrid" />
    <sodipodi:guide
       inkscape:locked="false"
       id="guide1380"
       orientation="78.000048,0"
       position="0.97013831,21.607643" />
    <sodipodi:guide
       inkscape:locked="false"
       id="guide1382"
       orientation="0,78.000005"
       position="0.97013831,0.97013129" />
    <sodipodi:guide
       inkscape:locked="false"
       id="guide1384"
       orientation="-78.000048,0"
       position="21.607639,0.97013129" />
    <sodipodi:guide
       inkscape:locked="false"
       id="guide1386"
       orientation="0,-78.000005"
       position="21.607639,21.607643" />
  </sodipodi:namedview>
  <metadata
     id="metadata828">
    <rdf:RDF>
      <cc:Work
         rdf:about="">
        <dc:format>image/svg+xml</dc:format>
        <dc:type
           rdf:resource="http://purl.org/dc/dcmitype/StillImage" />
        <dc:title></dc:title>
      </cc:Work>
    </rdf:RDF>
  </metadata>
  <g
     transform="translate(0,-274.42223)"
     id="layer1"
     inkscape:groupmode="layer"
     inkscape:label="Icon">
    <path
       id="path2045"
       style="color:#000000;font-style:normal;font-variant:normal;font-weight:normal;font-stretch:normal;font-size:medium;line-height:normal;font-family:sans-serif;font-variant-ligatures:normal;font-variant-position:normal;font-variant-caps:normal;font-variant-numeric:normal;font-variant-alternates:normal;font-variant-east-asian:normal;font-feature-settings:normal;font-variation-settings:normal;text-indent:0;text-align:start;text-decoration:none;text-decoration-line:none;text-decoration-style:solid;text-decoration-color:#000000;letter-spacing:normal;word-spacing:normal;text-transform:none;writing-mode:lr-tb;direction:ltr;text-orientation:mixed;dominant-baseline:auto;baseline-shift:baseline;text-anchor:start;white-space:normal;shape-padding:0;shape-margin:0;inline-size:0;clip-rule:nonzero;display:inline;overflow:visible;visibility:visible;isolation:auto;mix-blend-mode:normal;color-interpolation:sRGB;color-interpolation-filters:linearRGB;solid-color:#000000;solid-opacity:1;vector-effect:none;fill:#000000;fill-opacity:1;fill-rule:nonzero;stroke:none;stroke-width:0.665727;stroke-linecap:round;stroke-linejoin:round;stroke-miterlimit:4;stroke-dasharray:none;stroke-dashoffset:0;stroke-opacity:1;color-rendering:auto;image-rendering:auto;shape-rendering:auto;text-rendering:auto;enable-background:accumulate;stop-color:#000000"
       d="m 11.125411,275.39236 c -1.294181,0 -2.3462946,1.05293 -2.3462946,2.34695 v 9.54315 c -1.437601,0.84234 -2.3769413,2.34116 -2.3814014,4.02036 -3.63e-5,2.60746 2.1204522,4.72706 4.727696,4.72706 2.607247,0 4.730369,-2.1196 4.730297,-4.72706 -3.33e-4,-1.68286 -0.940857,-3.18789 -2.381402,-4.03271 v -9.5308 c 0,-1.29421 -1.054768,-2.34695 -2.348895,-2.34695 z m 0.0097,1.66627 c 0.523918,0 0.99794,0.38337 0.99794,0.90886 v 11.01829 c 0.970402,0.41448 1.66283,1.31204 1.663015,2.38596 -9e-6,1.46673 -1.196822,2.66355 -2.663556,2.66355 -1.4667353,0 -2.660945,-1.19682 -2.6609538,-2.66355 1.85e-4,-1.07392 0.6932632,-1.97148 1.6636658,-2.38596 v -11.01829 c 0,-0.52638 0.47597,-0.90886 0.999889,-0.90886 z m 3.275321,0 a 0.33286329,0.33286329 0 0 0 -0.334164,0.33156 0.33286329,0.33286329 0 0 0 0.334164,0.33416 h 0.855562 a 0.33286329,0.33286329 0 0 0 0.331564,-0.33416 0.33286329,0.33286329 0 0 0 -0.331564,-0.33156 z m -3.275321,0.66572 c -0.213802,0 -0.334163,0.12911 -0.334163,0.24314 v 11.17043 a 0.33289658,0.33289658 0 0 1 -0.237946,0.31921 c -0.8476784,0.25273 -1.4249178,1.03006 -1.42507,1.91461 6.3e-6,1.10694 0.887625,1.99716 1.994578,1.99718 1.10695,-2e-5 1.997822,-0.89024 1.997828,-1.99718 -1.52e-4,-0.88455 -0.577393,-1.66188 -1.42507,-1.91461 a 0.33289658,0.33289658 0 0 1 -0.238596,-0.31921 v -11.17043 c 0,-0.11498 -0.117767,-0.24314 -0.331561,-0.24314 z m 3.275321,0.99729 a 0.33286329,0.33286329 0 0 0 -0.334164,0.33481 0.33286329,0.33286329 0 0 0 0.334163,0.33156 h 1.435473 a 0.33286329,0.33286329 0 0 0 0.334163,-0.33156 0.33286329,0.33286329 0 0 0 -0.334163,-0.33481 z m 0,1.58305 a 0.33286329,0.33286329 0 0 0 -0.334164,0.33417 0.33286329,0.33286329 0 0 0 0.334164,0.33156 h 0.855562 a 0.33286329,0.33286329 0 0 0 0.331564,-0.33156 0.33286329,0.33286329 0 0 0 -0.331564,-0.33417 z m 0,1.41272 a 0.33286329,0.33286329 0 0 0 -0.334164,0.33417 0.33286329,0.33286329 0 0 0 0.334164,0.33156 h 1.435473 a 0.33286329,0.33286329 0 0 0 0.334162,-0.33156 0.33286329,0.33286329 0 0 0 -0.334162,-0.33417 z m 0,1.66561 a 0.33286329,0.33286329 0 0 0 -0.334164,0.33157 0.33286329,0.33286329 0 0 0 0.334164,0.33481 h 0.855562 a 0.33286329,0.33286329 0 0 0 0.331564,-0.33481 0.33286329,0.33286329 0 0 0 -0.331564,-0.33157 z m 0,1.66367 a 0.33286329,0.33286329 0 0 0 -0.334164,0.33156 0.33286329,0.33286329 0 0 0 0.334163,0.33417 h 1.435473 a 0.33286329,0.33286329 0 0 0 0.334163,-0.33417 0.33286329,0.33286329 0 0 0 -0.334163,-0.33156 z" />
  </g>
</svg>
