<!-- icon666.com - MILLIONS vector ICONS FREE --><svg version="1.1" id="Layer_1" xmlns="http://www.w3.org/2000/svg" xmlns:xlink="http://www.w3.org/1999/xlink" x="0px" y="0px" viewBox="0 0 512 512" style="enable-background:new 0 0 512 512;" xml:space="preserve"><path style="fill:#5C5F66;" d="M105,361C47.1,361,0,409.1,0,467v30c0,8.401,6.599,15,15,15h180c8.401,0,15-6.599,15-15v-30 C210,409.1,162.9,361,105,361z"></path><path style="fill:#7F838C;" d="M105,241c-41.4,0-75,33.6-75,75s33.6,75,75,75s75-33.6,75-75S146.4,241,105,241z"></path><path style="fill:#53565C;" d="M407,361c-57.9,0-105,48.1-105,106v30c0,8.401,6.599,15,15,15h180c8.401,0,15-6.599,15-15v-30 C512,409.1,464.9,361,407,361z"></path><path style="fill:#757982;" d="M407,241c-41.4,0-75,33.6-75,75s33.6,75,75,75s75-33.6,75-75S448.4,241,407,241z"></path><path style="fill:#FFDE33;" d="M351.099,70L293.8,61.601L268,7.59c-2.1-4.501-6.901-7.202-12.001-7.5c-6-0.601-12.299,1.8-15,7.5 l-25.8,54.011L157.599,70c-12.299,1.8-17.098,16.8-8.099,25.501L190.9,136l-9.6,57.599c-2.1,12.001,10.8,21.601,21.599,15.601 l51.601-27.001l1.5,0.901l50.099,26.1c10.801,5.7,23.701-3.3,21.601-15.601L317.8,136l41.7-40.499 C368.5,86.8,363.401,71.8,351.099,70z"></path><path style="fill:#FFBC33;" d="M359.5,95.501L317.8,136l9.901,57.599c2.1,12.301-10.8,21.301-21.601,15.601L256,183.1V0.09 c5.099,0.298,9.901,2.999,12.001,7.5l25.8,54.011L351.099,70C363.401,71.8,368.5,86.8,359.5,95.501z"></path><path style="fill:#4DB5FF;" d="M304.672,373.023C320.774,359.264,331,338.825,331,316c0-41.4-33.6-75-75-75s-75,33.6-75,75 c0,22.845,10.244,43.3,26.37,57.06C173.045,391.502,151,429.606,151,469.999V512h210v-45 C361,426.52,338.121,390.834,304.672,373.023z"></path><path style="fill:#4D97FF;" d="M304.672,373.023C320.774,359.264,331,338.825,331,316c0-41.4-33.6-75-75-75v120v30v121h105v-45 C361,426.52,338.121,390.834,304.672,373.023z"></path></svg>