<?xml version="1.0" encoding="UTF-8"?>
<!DOCTYPE svg PUBLIC "-//W3C//DTD SVG 1.1//EN" "http://www.w3.org/Graphics/SVG/1.1/DTD/svg11.dtd">
<!-- Creator: CorelDRAW 2021.5 -->
<svg xmlns="http://www.w3.org/2000/svg" xml:space="preserve" width="104.102mm" height="126.517mm" version="1.1" style="shape-rendering:geometricPrecision; text-rendering:geometricPrecision; image-rendering:optimizeQuality; fill-rule:evenodd; clip-rule:evenodd"
viewBox="0 0 4755.9 5779.9"
 xmlns:xlink="http://www.w3.org/1999/xlink"
 xmlns:xodm="http://www.corel.com/coreldraw/odm/2003">
 <defs>
  <style type="text/css">
   <![CDATA[
    .fil0 {fill:#FEFEFE}
   ]]>
  </style>
 </defs>
 <g id="Слой_x0020_1">
  <metadata id="CorelCorpID_0Corel-Layer"/>
  <path class="fil0" d="M1396.85 5779.9l1571.59 0c216.5,0 416.52,-39.23 571.88,-105.11 242.54,-102.84 418.55,-246.26 573.29,-454.29 382.24,-513.89 333.1,-1257.36 -126.66,-1716.38 -234.08,-233.71 -555.36,-408.01 -921.8,-408.01l-1765.02 0c-524.09,0 -984.38,347.5 -1196.82,822.06 -186.92,417.54 -111.36,944.3 155.26,1307.52 144.17,196.4 340.09,355.56 568.19,447.3 165.09,66.39 334.78,106.91 570.08,106.91zm-556.1 -4436.72c0,396.04 186.02,772.2 479.82,1019.23 328.54,276.23 728.44,375.27 1153.61,287.8 974.74,-200.54 1435.11,-1472.41 660.48,-2246.96 -62.38,-62.38 -97.8,-100.84 -173.37,-153.04 -382.52,-264.19 -911.39,-341 -1342.96,-124.17 -168.91,84.86 -261.25,150.83 -387.71,277.2 -60.2,60.16 -101,106.04 -149.94,176.47 -146.9,211.43 -239.94,498.14 -239.94,763.46zm3333.79 455.93l175.22 300.72c6.7,11.49 16.83,18.85 29.83,21.67l340.14 73.72c16.35,3.54 28.64,14.65 33.81,30.56 5.17,15.91 1.76,32.12 -9.38,44.6l-231.85 259.58c-8.86,9.92 -12.73,21.82 -11.39,35.06l35 346.28c1.68,16.64 -5.08,31.76 -18.62,41.6 -13.53,9.83 -30.01,11.6 -45.31,4.86l-318.52 -140.29c-12.18,-5.36 -24.69,-5.36 -36.87,0l-318.52 140.29c-15.31,6.74 -31.78,4.98 -45.31,-4.86 -13.53,-9.84 -20.3,-24.95 -18.62,-41.6l35 -346.28c1.34,-13.23 -2.53,-25.14 -11.39,-35.06l-231.85 -259.58c-11.14,-12.48 -14.55,-28.69 -9.38,-44.6 5.17,-15.91 17.46,-27.02 33.81,-30.56l340.14 -73.72c13,-2.82 23.13,-10.17 29.83,-21.67l175.22 -300.72c8.42,-14.45 22.78,-22.71 39.51,-22.71 16.73,0 31.09,8.25 39.51,22.71z"/>
 </g>
</svg>
