<?xml version="1.0" encoding="UTF-8"?>
<!DOCTYPE svg PUBLIC "-//W3C//DTD SVG 1.1//EN" "http://www.w3.org/Graphics/SVG/1.1/DTD/svg11.dtd">
<!-- Creator: CorelDRAW 2021.5 -->
<svg xmlns="http://www.w3.org/2000/svg" xml:space="preserve" width="126.984mm" height="125.452mm" version="1.1" style="shape-rendering:geometricPrecision; text-rendering:geometricPrecision; image-rendering:optimizeQuality; fill-rule:evenodd; clip-rule:evenodd"
viewBox="0 0 3091 3053.7"
 xmlns:xlink="http://www.w3.org/1999/xlink"
 xmlns:xodm="http://www.corel.com/coreldraw/odm/2003">
 <defs>
  <style type="text/css">
   <![CDATA[
    .fil0 {fill:#FEFEFE}
   ]]>
  </style>
 </defs>
 <g id="Слой_x0020_1">
  <metadata id="CorelCorpID_0Corel-Layer"/>
  <g id="_1632236224">
   <path class="fil0" d="M495.85 1558.38c0,-312.63 74.65,-488.28 244.65,-708.41 86.39,-111.87 234.37,-214.68 360.58,-276.94 316.92,-156.34 766.8,-119.62 1047.99,92 26.3,19.8 48.21,37.27 72.65,56.14 111.87,86.39 214.68,234.37 276.94,360.58 156.37,316.98 119.56,766.89 -92,1047.99 -121.46,161.38 -231.96,258.45 -416.72,349.59 -316.98,156.37 -766.89,119.56 -1047.99,-92 -26.3,-19.8 -48.21,-37.27 -72.65,-56.14 -61.62,-47.59 -134.76,-135.2 -182.13,-197.8 -107.35,-141.83 -191.3,-376.12 -191.3,-575.01zm-495.85 -238.27c0,139.93 25.18,158.69 87.98,285.51 29.96,60.5 92.33,153.36 92.33,236.09 0,211.31 -132.22,488.91 141.55,631.2 48.15,25.03 103.99,44.99 156.87,68.51 51.37,22.85 111.73,43.47 152.49,72.9 71.33,51.51 135.75,168.53 191.77,252.56 38.39,57.6 48.69,79.09 103.35,122.03 206.83,162.5 429.16,-33.16 625.61,-33.16 65.73,0 140.72,30.58 197.32,47.39 147.2,43.71 267.68,92.62 411.74,-11.45 117.05,-84.55 182.57,-293.44 298.79,-377.37 154.47,-111.54 483.1,-107.33 483.1,-437.76 0,-112.64 -32.2,-216.95 -32.2,-328.42 0,-143.94 180.31,-335.6 180.31,-476.53 0,-71.47 -0.65,-117.41 -41.24,-184.14 -46.09,-75.78 -112.72,-120.79 -172.88,-181.3 -31.53,-31.71 -58.36,-58.61 -90.26,-90.05 -166.27,-163.89 -6.11,-638.57 -513.45,-632.8 -55.43,0.63 -210.98,-13.08 -245.65,-24.82 -40.5,-13.72 -78.48,-39.39 -110.41,-63.46 -97.85,-73.76 -231.78,-195.06 -345.86,-195.06 -148.94,0 -175.93,28.95 -287.02,112.23 -59.42,44.54 -145.98,116.93 -211.34,142.84 -122.18,48.42 -341.79,4.78 -467.73,66.76 -48.48,23.86 -68.6,41.01 -101.54,78.77 -68.24,78.21 -70.96,141.57 -99.16,255.02 -28.76,115.71 -31.62,191.2 -108.88,271.06l-168.4 160.01c-58.18,58.28 -127.18,132.4 -127.18,233.44z"/>
   <path class="fil0" d="M1423.15 1951.19c-81.16,0 -134.99,-73.81 -178.7,-117.52 -50.94,-50.94 -97.17,-97.17 -148.11,-148.11 -44.83,-44.83 -114.83,-95.45 -127.33,-169.42 -13.67,-80.93 46.83,-157.39 145.04,-157.39 110.55,0 255.06,234.99 315.54,251.15 7.95,-29.79 38.87,-48.53 59.57,-69.23l199.63 -199.63c45.58,-45.58 86.43,-86.43 132.01,-132.01 51.47,-51.47 150.09,-174.04 257.81,-67.84 121.7,119.98 -23.14,225.99 -100.04,302.88 -30.55,30.55 -56.38,56.39 -86.93,86.93l-350.95 357.4c-28.05,28.23 -64.43,62.78 -117.53,62.78zm-830.71 -425.01c0,523.69 429.65,953.06 953.06,953.06 523.58,0 953.06,-429.48 953.06,-953.06 0,-523.65 -429.33,-953.06 -953.06,-953.06 -523.84,0 -953.06,429.22 -953.06,953.06z"/>
  </g>
 </g>
</svg>
