<?xml version="1.0" encoding="UTF-8"?>
<!DOCTYPE svg PUBLIC "-//W3C//DTD SVG 1.1//EN" "http://www.w3.org/Graphics/SVG/1.1/DTD/svg11.dtd">
<!-- Creator: CorelDRAW 2021.5 -->
<svg xmlns="http://www.w3.org/2000/svg" xml:space="preserve" width="134.337mm" height="116.359mm" version="1.1" style="shape-rendering:geometricPrecision; text-rendering:geometricPrecision; image-rendering:optimizeQuality; fill-rule:evenodd; clip-rule:evenodd"
viewBox="0 0 87243.78 75568.59"
 xmlns:xlink="http://www.w3.org/1999/xlink"
 xmlns:xodm="http://www.corel.com/coreldraw/odm/2003">
 <defs>
  <style type="text/css">
   <![CDATA[
    .fil0 {fill:#FEFEFE}
   ]]>
  </style>
 </defs>
 <g id="Слой_x0020_1">
  <metadata id="CorelCorpID_0Corel-Layer"/>
  <path class="fil0" d="M51439.6 39731.42l-620.48 -2326.88c-210.09,-788.03 -1017.61,-1262.97 -1808.43,-1063.59 -3238.57,816.67 -9422.47,3428.79 -11333.45,4826.58 -550.86,402.98 -6761.65,8896.95 -7763.15,10241.22 -10.78,14.48 -19.74,26.95 -30,41.76l-1648.61 2380.65c-287.77,415.58 -722.5,643.34 -1228.03,643.34l-6714.76 0c-487.21,0 -906.36,-210.35 -1197.57,-600.99l-5944.72 -7974.55c-447.01,-599.69 -1253.81,-776.86 -1910.98,-419.6 -677.63,368.36 -1370.38,862.2 -1665.43,1087.75 -761.66,582.35 -1643.93,1445.91 -2199.01,2268.04 -1650.42,2444.75 -2438.32,5438.42 -1930.27,8660.03 93.45,592.81 -153.59,1151.39 -655.16,1480.98l-4114.86 2704.01c-647.04,425.19 -862.07,1266.15 -498.58,1949.69 401.74,755.49 905,1601.46 1137.63,2003.13 6.75,11.69 12.4,21.69 18.83,33.58l4900.29 8989.88c268.67,492.86 750.23,778.81 1311.55,778.81l2010.28 0c468.12,0 870.9,-193.08 1164.19,-557.93 222.5,-276.86 518.45,-467.53 790.69,-774.98 675.61,-762.83 1714.91,-2117.31 2460.8,-2693.49 3245.71,-2507.1 5073.69,-3704.99 10211.61,-3704.99 5606.88,0 8238.22,3397.81 11165.18,5328.47 1243.35,820.18 2121.4,1241.86 3656.48,1841.42 5175.72,2021.25 9389.03,-950.59 13472.13,-1555.35 2430.86,-360.05 5514.66,956.82 9357.73,-435.06 1288.36,-466.56 2003.39,-1025.01 2998.92,-1811.68 1461.31,-1154.64 2729.99,-4742.28 5050.89,-4742.28 1527.94,0 2240.64,705.62 2961.58,1380.45 465.13,435.39 1119.57,530.46 1689.33,245.29l2280.32 -1141.26c414.73,-207.56 856.48,-216.98 1279.66,-27.28 423.24,189.77 710.03,525.79 830.96,973.58 372.32,1378.63 637.3,2313.76 722.18,4187.27 36.17,798.16 693.15,1426.11 1492.15,1426.11l2325.78 0c426.81,0 794.14,-158.53 1086.9,-469.16 292.77,-310.5 429.35,-686.59 404.21,-1112.62 -217.56,-3685.51 -1177.7,-6639.43 -2309.8,-9463.39 -663.73,-1655.55 -1222.12,-3144.79 -1889.94,-4810.67l-1560.35 -3831.05c-233.93,-574.3 -763.22,-930.26 -1383.37,-930.26l-31.82 0c-528.58,0 -982.86,-250.94 -1264.33,-698.34 -281.47,-447.46 -310.95,-965.59 -82.09,-1442.08 576.51,-1200.23 1085.54,-2415.4 1371.03,-3853.72 345.37,-1740.31 608.79,-5014.2 2386.17,-6204.3 480.78,352.26 477.34,693.86 739.65,1299.6 5.07,11.69 9.29,21.69 14.09,33.51l1268.88 3137.45c306.54,757.83 1170.1,1129.12 1930.98,830.18l2146.34 -843.23c384.73,-151.12 661.65,-419.08 825.37,-798.62 163.72,-379.53 168.53,-764.85 14.48,-1148.41 -211.98,-527.67 -443.05,-1043.91 -558.32,-1332.39 -375.96,-940.78 -694.25,-1765.24 -1078.07,-2701.74 -708.73,-1729.27 -1484.88,-3618.23 -2186.28,-5373.34l-3264.41 -8075.02c-173.53,-434.22 -424.41,-990.59 -643.73,-1529.37 -279.32,-686.13 -1003,-1060.15 -1724.26,-891.16 -2530.16,592.81 -4011.66,1056.58 -6540.13,3182.84 -3853.91,3240.84 -3734.74,6295.74 -7632.29,9376.82 -541.05,427.66 -988.97,783.16 -1546.51,1202.5 -3139.33,2361.17 -6646.7,3297.66 -8676.92,3858.72 -398.76,110.21 -781.47,61.96 -1140.48,-143.72 -358.95,-205.68 -594.11,-511.43 -700.68,-911.17zm-35791.32 -21395.56c0,-5463.16 4186.03,-8737.18 8510.34,-8754.59 4324.3,17.41 8510.34,3291.43 8510.34,8754.59 0,4782.29 -3879.69,8149.12 -8510.34,8320.05 -4630.64,-170.93 -8510.34,-3537.76 -8510.34,-8320.05zm8510.34 -18335.85c-4612.85,60.85 -9296.09,1854.48 -12762.74,5321.19 -2823.05,2822.99 -5368.93,7270.81 -5368.93,12842.88 0,10193.23 9325.58,20530.9 15135.6,28085.71 614.05,812.06 1559.11,1841.23 2996.06,1839.67 1436.95,1.56 2382.02,-1027.61 2996.06,-1839.67 5810.03,-7554.81 15135.6,-17892.48 15135.6,-28085.71 0,-5572.07 -2545.87,-10019.9 -5368.93,-12842.88 -3466.65,-3466.71 -8149.9,-5260.34 -12762.74,-5321.19z"/>
 </g>
</svg>
